<svg xmlns="http://www.w3.org/2000/svg" width="20" height="20" viewBox="0 0 20 20" fill="none">
  <path fill-rule="evenodd" clip-rule="evenodd" d="M10.0001 18.3334C5.39771 18.3334 1.66675 14.6024 1.66675 10C1.66675 5.39765 5.39771 1.66669 10.0001 1.66669C14.6025 1.66669 18.3334 5.39765 18.3334 10C18.3334 14.6024 14.6025 18.3334 10.0001 18.3334ZM10.0001 3.33335C6.31818 3.33335 3.33341 6.31812 3.33341 10C3.33341 13.6819 6.31818 16.6667 10.0001 16.6667C13.682 16.6667 16.6667 13.6819 16.6667 10C16.6667 6.31812 13.682 3.33335 10.0001 3.33335ZM10.0001 8.95835C10.5754 8.95835 11.0417 9.42472 11.0417 10V13.3334C11.0417 13.9087 10.5754 14.375 10.0001 14.375C9.42478 14.375 8.95842 13.9087 8.95842 13.3334V10C8.95842 9.42472 9.42478 8.95835 10.0001 8.95835ZM10.0001 5.83335C9.42478 5.83335 8.95842 6.29972 8.95842 6.87502C8.95842 7.45032 9.42478 7.91669 10.0001 7.91669C10.5754 7.91669 11.0417 7.45032 11.0417 6.87502C11.0417 6.29972 10.5754 5.83335 10.0001 5.83335Z" fill="#86868B"/>
</svg>