<svg xmlns="http://www.w3.org/2000/svg" width="32" height="32" viewBox="0 0 32 32" fill="none">
  <path d="M25.3332 8.30001H26.0574L25.5453 7.78787L23.2692 5.51173C22.9629 5.20542 22.5474 5.03334 22.1142 5.03334H9.88546C9.45227 5.03334 9.03682 5.20542 8.73051 5.51173L6.45437 7.78787L5.94224 8.30001H6.6665H25.3332ZM9.88546 2.96667H22.1142C23.0955 2.96667 24.0366 3.35649 24.7305 4.05038L27.9495 7.26933C28.6434 7.96321 29.0332 8.90432 29.0332 9.88562V12V25.3333C29.0332 27.3768 27.3766 29.0333 25.3332 29.0333H6.6665C4.62305 29.0333 2.9665 27.3768 2.9665 25.3333V12V9.88562C2.9665 8.90432 3.35632 7.96321 4.05021 7.26933L7.26916 4.05038C7.96305 3.35649 8.90415 2.96667 9.88546 2.96667ZM5.03317 12V25.3333C5.03317 26.2354 5.76444 26.9667 6.6665 26.9667H25.3332C26.2352 26.9667 26.9665 26.2354 26.9665 25.3333V12C26.9665 11.0979 26.2352 10.3667 25.3332 10.3667H6.6665C5.76444 10.3667 5.03317 11.0979 5.03317 12ZM10.9665 14.6667C10.9665 14.096 11.4291 13.6333 11.9998 13.6333H19.9998C20.5705 13.6333 21.0332 14.096 21.0332 14.6667C21.0332 15.2374 20.5705 15.7 19.9998 15.7H11.9998C11.4291 15.7 10.9665 15.2374 10.9665 14.6667Z" fill="#1D1D1F" stroke="white" stroke-width="0.6"/>
</svg>