<svg xmlns="http://www.w3.org/2000/svg" width="32" height="32" viewBox="0 0 32 32" fill="none">
  <path d="M24.0621 9.04484L24.1274 9.22684L24.3201 9.24252C26.2255 9.39754 27.6998 10.9171 27.6998 12.7436V14.3552V14.5323L27.8549 14.6179C28.5647 15.0094 29.0332 15.7351 29.0332 16.5577V19.1005C29.0332 19.9231 28.5647 20.6488 27.8549 21.0403L27.6998 21.1259V21.303V24.1859C27.6998 26.1134 26.0569 27.7 23.9998 27.7L6.66651 27.7C4.60944 27.7 2.9665 26.1134 2.9665 24.1859V12.7436C2.9665 11.2768 3.91521 10.01 5.27765 9.48547L5.31724 9.47023L5.35105 9.44461C5.42945 9.38521 5.51903 9.33528 5.61896 9.29799L18.3591 4.54452C20.3329 3.80809 22.5367 4.7946 23.214 6.68177L24.0621 9.04484ZM25.3332 14.315H25.6332V14.015V12.7436C25.6332 11.8625 24.8883 11.1723 23.9998 11.1723L6.66651 11.1723C5.77806 11.1723 5.03317 11.8625 5.03317 12.7436L5.03317 24.1859C5.03317 25.067 5.77806 25.7573 6.66651 25.7573L23.9998 25.7573C24.8883 25.7573 25.6332 25.067 25.6332 24.1859V21.6432V21.3432H25.3332H23.9998C21.9428 21.3432 20.2998 19.7566 20.2998 17.8291C20.2998 15.9016 21.9428 14.315 23.9998 14.315H25.3332ZM21.5209 9.22955H21.9473L21.8033 8.82822L21.2557 7.30234C20.95 6.45049 19.9746 6.03181 19.1211 6.35028L12.9615 8.64848L13.0664 9.22955L21.5209 9.22955ZM26.9665 16.5577V16.2577H26.6665H23.9998C23.1114 16.2577 22.3665 16.948 22.3665 17.8291C22.3665 18.7102 23.1114 19.4005 23.9998 19.4005H26.6665H26.9665V19.1005V16.5577Z" fill="#1D1D1F" stroke="white" stroke-width="0.6"/>
</svg>