<svg xmlns="http://www.w3.org/2000/svg" width="64" height="64" viewBox="0 0 64 64" fill="none">
<path fill-rule="evenodd" clip-rule="evenodd" d="M55.2189 12.5523C56.2603 11.5109 56.2603 9.82245 55.2189 8.78105C54.1776 7.73965 52.4891 7.73965 51.4477 8.78105L32 28.2288L12.5523 8.78105C11.5109 7.73965 9.82245 7.73965 8.78105 8.78105C7.73965 9.82245 7.73965 11.5109 8.78105 12.5523L28.2288 32L8.78105 51.4477C7.73965 52.4891 7.73965 54.1776 8.78105 55.219C9.82245 56.2604 11.5109 56.2604 12.5523 55.219L32 35.7712L51.4477 55.219C52.4891 56.2604 54.1776 56.2604 55.219 55.219C56.2604 54.1776 56.2604 52.4891 55.219 51.4477L35.7712 32L55.2189 12.5523Z" fill="white"/>
</svg>